<mxfile host="www.draw.io" modified="2020-01-17T15:05:52.596Z" agent="Mozilla/5.0 (Windows NT 10.0; Win64; x64) AppleWebKit/537.36 (KHTML, like Gecko) Chrome/79.0.3945.88 Safari/537.36" etag="1f9w7Tk4uszcGVAjpown" version="12.4.9" type="github">
  <diagram name="Page-1" id="42789a77-a242-8287-6e28-9cd8cfd52e62">
    <mxGraphModel dx="792" dy="566" grid="1" gridSize="10" guides="1" tooltips="1" connect="1" arrows="1" fold="1" page="0" pageScale="1" pageWidth="4681" pageHeight="3300" background="#ffffff" math="0" shadow="0">
      <root>
        <mxCell id="0"/>
        <mxCell id="1" parent="0"/>
        <mxCell id="5E89_UcfFXjDsdZbnOyf-6" style="edgeStyle=orthogonalEdgeStyle;rounded=0;orthogonalLoop=1;jettySize=auto;html=1;exitX=1;exitY=0.5;exitDx=0;exitDy=0;entryX=0;entryY=0.5;entryDx=0;entryDy=0;fontSize=17;" edge="1" parent="1" source="5E89_UcfFXjDsdZbnOyf-1" target="5E89_UcfFXjDsdZbnOyf-2">
          <mxGeometry relative="1" as="geometry"/>
        </mxCell>
        <mxCell id="5E89_UcfFXjDsdZbnOyf-1" value="码总管" style="rounded=1;whiteSpace=wrap;html=1;fontSize=17;" vertex="1" parent="1">
          <mxGeometry x="240" y="320" width="80" height="40" as="geometry"/>
        </mxCell>
        <mxCell id="5E89_UcfFXjDsdZbnOyf-12" style="edgeStyle=orthogonalEdgeStyle;rounded=0;orthogonalLoop=1;jettySize=auto;html=1;exitX=1;exitY=0.5;exitDx=0;exitDy=0;entryX=0;entryY=0.5;entryDx=0;entryDy=0;fontSize=17;" edge="1" parent="1" source="5E89_UcfFXjDsdZbnOyf-2" target="5E89_UcfFXjDsdZbnOyf-8">
          <mxGeometry relative="1" as="geometry"/>
        </mxCell>
        <mxCell id="5E89_UcfFXjDsdZbnOyf-13" style="edgeStyle=orthogonalEdgeStyle;rounded=0;orthogonalLoop=1;jettySize=auto;html=1;exitX=1;exitY=0.5;exitDx=0;exitDy=0;entryX=0;entryY=0.5;entryDx=0;entryDy=0;fontSize=17;" edge="1" parent="1" source="5E89_UcfFXjDsdZbnOyf-2" target="5E89_UcfFXjDsdZbnOyf-7">
          <mxGeometry relative="1" as="geometry"/>
        </mxCell>
        <mxCell id="5E89_UcfFXjDsdZbnOyf-2" value="活动" style="rounded=1;whiteSpace=wrap;html=1;fontSize=15;" vertex="1" parent="1">
          <mxGeometry x="400" y="200" width="80" height="40" as="geometry"/>
        </mxCell>
        <mxCell id="5E89_UcfFXjDsdZbnOyf-14" style="edgeStyle=orthogonalEdgeStyle;rounded=0;orthogonalLoop=1;jettySize=auto;html=1;exitX=1;exitY=0.5;exitDx=0;exitDy=0;entryX=0;entryY=0.5;entryDx=0;entryDy=0;fontSize=17;" edge="1" parent="1" source="5E89_UcfFXjDsdZbnOyf-7" target="5E89_UcfFXjDsdZbnOyf-10">
          <mxGeometry relative="1" as="geometry"/>
        </mxCell>
        <mxCell id="5E89_UcfFXjDsdZbnOyf-15" style="edgeStyle=orthogonalEdgeStyle;rounded=0;orthogonalLoop=1;jettySize=auto;html=1;exitX=1;exitY=0.5;exitDx=0;exitDy=0;entryX=0;entryY=0.5;entryDx=0;entryDy=0;fontSize=17;" edge="1" parent="1" source="5E89_UcfFXjDsdZbnOyf-7" target="5E89_UcfFXjDsdZbnOyf-11">
          <mxGeometry relative="1" as="geometry"/>
        </mxCell>
        <mxCell id="5E89_UcfFXjDsdZbnOyf-7" value="条件" style="rounded=1;whiteSpace=wrap;html=1;fontSize=15;" vertex="1" parent="1">
          <mxGeometry x="520" y="80" width="80" height="40" as="geometry"/>
        </mxCell>
        <mxCell id="5E89_UcfFXjDsdZbnOyf-8" value="奖品" style="rounded=1;whiteSpace=wrap;html=1;fontSize=15;" vertex="1" parent="1">
          <mxGeometry x="520" y="200" width="80" height="40" as="geometry"/>
        </mxCell>
        <mxCell id="5E89_UcfFXjDsdZbnOyf-10" value="参与条件" style="rounded=1;whiteSpace=wrap;html=1;fontSize=15;" vertex="1" parent="1">
          <mxGeometry x="640" width="100" height="40" as="geometry"/>
        </mxCell>
        <mxCell id="5E89_UcfFXjDsdZbnOyf-11" value="领奖条件" style="rounded=1;whiteSpace=wrap;html=1;fontSize=15;" vertex="1" parent="1">
          <mxGeometry x="640" y="80" width="100" height="40" as="geometry"/>
        </mxCell>
        <mxCell id="5E89_UcfFXjDsdZbnOyf-16" value="发放行为" style="rounded=1;whiteSpace=wrap;html=1;fontSize=15;" vertex="1" parent="1">
          <mxGeometry x="640" y="160" width="100" height="40" as="geometry"/>
        </mxCell>
        <mxCell id="5E89_UcfFXjDsdZbnOyf-17" value="发放行为" style="rounded=1;whiteSpace=wrap;html=1;fontSize=15;" vertex="1" parent="1">
          <mxGeometry x="640" y="240" width="100" height="40" as="geometry"/>
        </mxCell>
      </root>
    </mxGraphModel>
  </diagram>
</mxfile>
